<svg xmlns="http://www.w3.org/2000/svg" xmlns:xlink="http://www.w3.org/1999/xlink" width="220" height="130" viewBox="0 0 220 130">
  <defs>
    <linearGradient id="rvb-a" x1="38.533%" x2="64.068%" y1="52.941%" y2="43.761%">
      <stop offset="0%" stop-color="#93BF1F"/>
      <stop offset="100%" stop-color="#0079C1"/>
    </linearGradient>
    <polygon id="rvb-b" points=".021 .053 16.445 .053 16.445 75 .021 75"/>
  </defs>
  <g fill="none" fill-rule="evenodd">
    <g transform="translate(7 57.305)">
      <path fill="#0079C1" d="M48.6286,5.1341 L39.9856,5.1341 L39.9856,1.0421 L37.0095687,1.0421 L37.0095687,10.2841 C37.0076,10.5301 37.1016,10.7531 37.2776,10.9261 C37.4486,11.0961 37.6726,11.1931 37.9166,11.1921077 L39.9856,11.1921077 L39.9856,6.9371 C39.9866,6.7421 40.0466,6.5841 40.1856,6.4471 C40.3286,6.3031 40.4826,6.2421 40.6876,6.2401 L48.6286,6.2401 L48.6286,10.2841 C48.6266,10.5341 48.7236,10.7531 48.8966,10.9261 C49.0666,11.0961 49.2916,11.1921077 49.5456,11.1921077 L51.6206,11.1921077 L51.6206,1.0421 L48.6286,1.0421 L48.6286,5.1341 Z M69.4986,2.3311 C68.7546,1.8501 67.8856,1.4761 66.8906,1.1971 C65.8956,0.9231 64.8306,0.7841 63.6936,0.7841 C62.5676,0.7841 61.5066,0.9231 60.5066,1.1971 C59.5136,1.4761 58.6386,1.8491 57.8856,2.3311 C57.1426,2.8151 56.5486,3.3761 56.1136,4.0211 C55.6816,4.6631 55.4616,5.3631 55.4616,6.1121 C55.4616,6.8531 55.6816,7.5531 56.1136,8.2001 C56.5486,8.8471 57.1426,9.4061 57.8856,9.8871 C58.6376,10.3641 59.5116,10.7471 60.5066,11.0241 C61.5066,11.2951 62.5676,11.4341 63.6936,11.4341 C64.8306,11.4341 65.8956,11.2951 66.8906,11.0241 C67.8856,10.7471 68.7546,10.3641 69.4986,9.8871 C70.2516,9.4061 70.8446,8.8471 71.2736,8.1981 C71.7126,7.5531 71.9336,6.8531 71.9316135,6.1121 C71.9336,5.3621 71.7126,4.6631 71.2726,4.0211 C70.8446,3.3761 70.2526,2.8151 69.4986,2.3311 L69.4986,2.3311 Z M68.3656,7.7551 C68.1076,8.2711 67.7466,8.7131 67.2866,9.1031 C66.8276,9.4881 66.2906,9.7931 65.6706,10.0221 C65.0576,10.2431 64.4016,10.3551 63.6936,10.3551 C62.9886,10.3551 62.3366,10.2431 61.7176,10.0211 C61.1076,9.7931 60.5676,9.4881 60.1126,9.1031 C59.6566,8.7131 59.2956,8.2711 59.0306,7.7531 C58.7636,7.2381 58.6356,6.6951 58.6356,6.1121 C58.6356,5.5261 58.7636,4.9791 59.0306,4.4731 C59.2956,3.9521 59.6586,3.5021 60.1126,3.1161 C60.5676,2.7331 61.1076,2.4231 61.7176,2.2021 C62.3366,1.9811 62.9886,1.8631 63.6936,1.8631 C64.4016,1.8631 65.0566,1.9811 65.6726,2.2021 C66.2906,2.4231 66.8276,2.7331 67.2866,3.1161 C67.7446,3.5021 68.1076,3.9521 68.3656,4.4691 C68.6236,4.9791 68.7576,5.5261 68.7576,6.1121 C68.7576,6.6941 68.6236,7.2381 68.3656,7.7551 L68.3656,7.7551 Z M88.7826,1.7381 C88.2966,1.4791 87.7296,1.3031 87.0866,1.1961 C86.4416,1.0911 85.7616,1.0421 85.0296,1.0421 L75.7765687,1.0421 L75.7765687,10.2821 C75.7746,10.5301 75.8686,10.7511 76.0426,10.9261 C76.2166,11.0981 76.4396,11.1921 76.6846,11.1921 L78.7496,11.1921 L78.7496,7.7711 L85.0296,7.7711 C85.7616,7.7711 86.4436,7.7161 87.0856,7.6101 C87.7296,7.4981 88.2966,7.3201 88.7826,7.0601 C89.2676,6.8031 89.6596,6.4581 89.9436,6.0261 C90.2296,5.5871 90.3676,5.0471 90.3676,4.4061 C90.3676,3.7651 90.2296,3.2191 89.9436,2.7811 C89.6596,2.3441 89.2696,1.9951 88.7826,1.7381 L88.7826,1.7381 Z M87.6376,5.4601 C87.4906,5.7481 87.2906,5.9821 87.0386,6.1611 C86.7786,6.3371 86.4856,6.4681 86.1406,6.5471 C85.7966,6.6211 85.4246,6.6651 85.0296,6.6651 L78.7496,6.6651 L78.7496,2.1361 L85.0296,2.1361 C85.4246,2.1361 85.7966,2.1731 86.1406,2.2501 C86.4856,2.3291 86.7786,2.4571 87.0406,2.6391 C87.2926,2.8181 87.4906,3.0461 87.6376,3.3341 C87.7786,3.6131 87.8506,3.9671 87.8506,4.3921 C87.8506,4.8211 87.7786,5.1761 87.6376,5.4601 L87.6376,5.4601 Z M94.2116,10.2821 C94.2116,10.5301 94.3026,10.7511 94.4776,10.9261 C94.6506,11.0981 94.8736,11.1921 95.1226,11.1921 L97.1866,11.1921 L97.1866,1.0421 L94.2116,1.0421 L94.2116,10.2821 Z M115.1906,1.0421 L100.6266,1.0421 L100.6266,2.1471 L106.0196,2.1471 L106.0196,10.2841 C106.0196,10.5301 106.1116,10.7531 106.2896,10.9261 C106.4606,11.0961 106.6796,11.1921 106.9266,11.1921 L109.0036,11.1921 L109.0036,2.8491 C109.0046,2.6501 109.0716,2.4881 109.2056,2.3521 C109.3366,2.2121 109.5006,2.1471 109.7076,2.1471 L115.1906,2.1471 L115.1906,1.0421 Z M122.6876,1.0421 L115.1806,11.1921 L117.0626,11.1921 L117.0916,11.1481 C117.3336,10.8181 117.5696,10.5001 117.8046,10.1821 C118.0006,9.9231 118.1986,9.6481 118.4046,9.3641 C118.6126,9.0771 118.7916,8.8371 118.9396,8.6421 C119.0866,8.4451 119.2066,8.2901 119.3026,8.1851 C119.4046,8.0771 119.4936,8.0021 119.5736,7.9551 C119.6566,7.9111 119.7416,7.8851 119.8306,7.8761 C119.9266,7.8711 120.0506,7.8641 120.2016,7.8641 L127.7296,7.8641 L130.1746,11.1921 L133.8366,11.1921 L126.3456,1.0421 L122.6876,1.0421 Z M120.4886,6.5551 L123.6256,2.3081 L126.7476,6.5551 L120.4886,6.5551 Z M140.8676,10.1111 C140.6676,10.1101 140.5046,10.0451 140.3696,9.9061 C140.2306,9.7641 140.1646,9.6111 140.1646,9.4131 L140.1646,1.0421 L137.1806,1.0421 L137.1806,9.5321 C137.1806,9.7561 137.2176,9.9761 137.3076,10.1791 C137.3966,10.3771 137.5146,10.5531 137.6686,10.7051 C137.8146,10.8561 137.9976,10.9791 138.2016,11.0581 C138.3916,11.1471 138.6036,11.1921 138.8306,11.1921 L149.9736,11.1921 L149.9736,10.1111 L140.8676,10.1111 Z"/>
      <path fill="#00497E" d="M149.9748 40.9075L144.7638 40.9075C144.0288 40.9075 143.3668 40.6395 142.8658 40.1435 142.3658 39.6365 142.0978 38.9935 142.0978 38.2785L142.0978 29.8215 124.9018 29.8215C124.6168 29.8215 124.4018 29.9055 124.2048 30.1055 124.0078 30.3035 123.9158 30.5125 123.9158 30.7995L123.9158 40.9075 118.7068 40.9075C117.9878 40.9075 117.3528 40.6395 116.8458 40.1435 116.3488 39.6365 116.0798 38.9935 116.0798 38.2785L116.0798 16.9885 123.9158 16.9885 123.9158 26.1555 142.0978 26.1555 142.0978 16.9885 149.9748 16.9885 149.9748 40.9075zM97.8762 41.5531C96.8782 41.5531 95.8362 41.5191 94.7732 41.4471 92.2282 41.3031 89.7902 40.9081 87.5252 40.2611 85.2502 39.6131 83.2272 38.7471 81.5192 37.6941 79.7792 36.6161 78.3772 35.3391 77.3582 33.8861 76.3002 32.3891 75.7602 30.7271 75.7602 28.9361 75.7602 27.1481 76.3002 25.4821 77.3582 23.9821 78.3772 22.5321 79.7792 21.2531 81.5192 20.1831 83.2272 19.1241 85.2502 18.2611 87.5252 17.6291 89.7902 16.9841 92.2272 16.5821 94.7732 16.4211 97.2492 16.2811 99.5502 16.3131 101.6572 16.5261 103.7472 16.7391 105.5872 17.0161 107.1342 17.3391 108.0762 17.5341 109.0242 17.7511 109.9312 18.0051L110.5332 18.1761 110.5332 23.2961 109.3792 22.8031C108.4052 22.3771 107.4142 21.9961 106.4372 21.6611 105.6722 21.4161 104.8312 21.1671 103.9472 20.9271 103.0632 20.6931 102.1232 20.5031 101.1472 20.3481 100.1622 20.1881 99.1422 20.0771 98.0912 20.0161 97.0452 19.9641 95.9732 19.9751 94.8842 20.0541 93.3752 20.1621 91.9302 20.4721 90.6032 20.9611 89.2962 21.4581 88.1382 22.0991 87.1752 22.8851 86.2252 23.6691 85.4582 24.5851 84.9032 25.6171 84.3582 26.6181 84.0842 27.7351 84.0842 28.9361 84.0842 30.1361 84.3582 31.2571 84.9032 32.2501 85.4582 33.2821 86.2252 34.2031 87.1752 34.9781 88.1382 35.7721 89.2962 36.4241 90.6102 36.9181 91.9352 37.4231 93.3752 37.7391 94.8932 37.8541 95.9832 37.9441 97.0452 37.9581 98.0812 37.8861 99.1342 37.8241 100.1622 37.7111 101.1472 37.5571 102.1232 37.3961 103.0582 37.2051 103.9472 36.9681 104.8372 36.7361 105.6762 36.4911 106.4372 36.2351 107.4142 35.9041 108.4012 35.5171 109.3772 35.0961L110.5332 34.5911 110.5332 39.7291 109.9312 39.8971C109.0182 40.1451 108.0762 40.3711 107.1322 40.5711 105.5972 40.8801 103.7532 41.1541 101.6572 41.3651 100.4572 41.4911 99.1842 41.5531 97.8762 41.5531M70.1374 23.9183C69.1324 22.4283 67.7374 21.0943 65.9914 19.9753 64.2854 18.8803 62.2634 18.0023 59.9914 17.3693 57.7214 16.7383 55.2624 16.4203 52.6754 16.4203 50.1084 16.4203 47.6554 16.7383 45.3774 17.3693 43.0964 18.0023 41.0664 18.8803 39.3534 19.9753 37.6154 21.0963 36.2204 22.4283 35.2084 23.9183 34.1704 25.4663 33.6464 27.1603 33.6464 28.9363 33.6464 30.7233 34.1704 32.4043 35.2084 33.9493 36.2204 35.4443 37.6154 36.7693 39.3534 37.8853 41.0664 38.9943 43.0964 39.8723 45.3774 40.5063 47.6554 41.1233 50.1084 41.4463 52.6754 41.4463 55.2624 41.4463 57.7214 41.1233 59.9914 40.5063 62.2634 39.8723 64.2854 38.9943 65.9914 37.8973 67.7374 36.7803 69.1324 35.4443 70.1424 33.9493 71.1824 32.4043 71.7034 30.7153 71.7034 28.9363 71.7034 27.1603 71.1824 25.4663 70.1374 23.9183M62.6134 32.3523C62.0584 33.4273 61.2944 34.3803 60.3344 35.1813 59.3594 36.0003 58.2094 36.6473 56.9044 37.1343 55.5944 37.6073 54.1754 37.8473 52.6754 37.8473 51.1774 37.8473 49.7544 37.6073 48.4484 37.1343 47.1434 36.6473 45.9954 36.0003 45.0404 35.1863 44.0824 34.3803 43.3144 33.4163 42.7614 32.3393 42.2114 31.2873 41.9344 30.1363 41.9344 28.9363 41.9344 27.7353 42.2114 26.5873 42.7614 25.5263 43.3144 24.4443 44.0824 23.4863 45.0404 22.6763 45.9954 21.8723 47.1534 21.2183 48.4484 20.7413 49.7544 20.2603 51.1774 20.0153 52.6754 20.0153 54.1754 20.0153 55.5944 20.2603 56.9044 20.7413 58.2094 21.2183 59.3594 21.8723 60.3344 22.6883 61.2944 23.4963 62.0584 24.4443 62.6134 25.5243 63.1504 26.5843 63.4184 27.7263 63.4184 28.9363 63.4184 30.1363 63.1504 31.2873 62.6134 32.3523M7.8801 40.9075L2.6301 40.9075C1.9161 40.9075 1.2731 40.6395.7681 40.1435.2681 39.6365.0001 38.9935.0001 38.2785L.0001 16.9415 30.0661 16.9415 30.0661 20.6185 7.8801 20.6185 7.8801 26.1365 29.0191 26.1365 29.0191 29.7965 8.8641 29.7965C8.5781 29.7965 8.3651 29.8885 8.1671 30.0845 7.9651 30.2825 7.8801 30.4975 7.8801 30.7845L7.8801 40.9075z"/>
    </g>
    <path fill="url(#rvb-a)" d="M10.839,93.981 C7.311,75.996 -1.12,46.702 29.101,29.106 L29.101,29.106 C38.612,23.572 42.276,17.316 43.426,12.105 L43.426,12.105 C43.426,12.105 43.905,9.959 43.905,7.625 L43.905,7.625 C43.905,5.292 43.426,3.864 43.426,3.864 L43.426,3.864 C43.015,1.995 42.466,0.879 42.466,0.879 L42.466,0.879 C-12.431,23.731 -3.164,55.026 10.839,93.981" transform="translate(169 4.305)"/>
    <g transform="translate(176 51.305)">
      <mask id="rvb-c" fill="#fff">
        <use xlink:href="#rvb-b"/>
      </mask>
      <path fill="#00497E" d="M3.8371,46.9681 C5.9881,55.1011 6.8221,63.9491 3.5771,75.0001 C29.7011,35.5191 8.6721,23.3681 4.3741,0.0531 C-3.5969,15.9411 1.3381,34.2561 3.8371,46.9681" mask="url(#rvb-c)"/>
      <path fill="#00497E" d="M11.3508,14.5487 C7.3748,6.9107 25.7838,7.4187 31.3258,2.9707 C28.0308,15.1567 14.6888,20.9637 11.3508,14.5487"/>
    </g>
  </g>
</svg>
