<?xml version="1.0" encoding="UTF-8"?>
<svg width="110px" height="110px" viewBox="0 0 110 110" version="1.1" xmlns="http://www.w3.org/2000/svg" xmlns:xlink="http://www.w3.org/1999/xlink">
    <!-- Generator: Sketch 61.2 (89653) - https://sketch.com -->
    <title>logo</title>
    <desc>Created with Sketch.</desc>
    <defs>
        <linearGradient x1="0%" y1="100%" x2="100%" y2="0%" id="linearGradient-1">
            <stop stop-color="#00405C" offset="0%"></stop>
            <stop stop-color="#4FA8AF" offset="100%"></stop>
        </linearGradient>
    </defs>
    <g id="00_DESKTOP" stroke="none" stroke-width="1" fill="none" fill-rule="evenodd">
        <g id="HOMEPAGE-V4" transform="translate(-141.000000, -60.000000)">
            <g id="MENU">
                <g id="logo" transform="translate(141.000000, 60.000000)">
                    <path d="M0,55.0002256 C0,85.3760168 24.6239832,110 54.9997744,110 L54.9997744,110 C85.3760168,110 110,85.3760168 110,55.0002256 L110,55.0002256 C110,24.6239832 85.3760168,0 54.9997744,0 L54.9997744,0 C24.6239832,0 0,24.6239832 0,55.0002256" id="Fill-1" fill="url(#linearGradient-1)"></path>
                    <path d="M64.2766761,45.5812099 L88.559322,45.5812099 L88.559322,26.1016949 L83.7135028,26.1016949 L83.7135028,40.7244067 L69.1224953,40.7244067 L69.1224953,26.1016949 L64.2775838,26.1016949 L64.2766761,45.5812099 Z M39.9958455,45.5812099 L59.4313108,45.5812099 L59.4313108,26.1016949 L54.5877606,26.1016949 L54.5877606,40.7248615 L39.9958455,40.7248615 L39.9958455,45.5812099 Z M54.5873068,69.9152542 L59.4313108,69.9152542 L59.4313108,50.4366488 L39.9958455,50.4366488 L39.9958455,55.2929973 L53.9565062,55.2929973 L53.3497578,56.4036175 C50.2493048,61.8234625 44.4949513,65.189888 38.3330733,65.189888 C28.7730408,65.189888 20.9960411,57.3946255 20.9960411,47.8115464 C20.9974025,38.2307413 28.7744022,30.437298 38.3330733,30.437298 C41.6027986,30.437298 44.7554401,31.3459873 47.5105411,33.07468 L49.978832,29.6418538 C46.4989911,27.3951445 42.4936343,26.2117564 38.3330733,26.2117564 C26.4481549,26.2117564 16.779661,35.9012586 16.779661,47.8115464 C16.779661,59.7282015 26.4481549,69.423616 38.3330733,69.423616 C43.8237613,69.423616 49.0562295,67.3474566 53.0656706,63.5762596 L54.5873068,62.0417662 L54.5873068,69.9152542 Z M83.718041,69.9152542 L88.559322,69.9152542 L88.559322,50.4366488 L64.2775838,50.4366488 L64.2775838,69.9152542 L69.1224953,69.9152542 L69.1224953,55.2929973 L83.718041,55.2929973 L83.718041,69.9152542 Z" id="Fill-4" fill="#FFFFFF"></path>
                    <path d="M21.4444937,78.4247435 L20.5678624,78.4247435 L20.5678624,75.3816177 L21.4444937,75.3816177 C22.4448903,75.3816177 23.1757425,76.0341092 23.1757425,76.9000049 C23.1757425,77.7722519 22.4448903,78.4247435 21.4444937,78.4247435 M21.5364617,74.5762712 L19.7142232,74.5762712 C19.6374201,74.5762712 19.5762712,74.6359735 19.5762712,74.7024506 L19.5762712,79.1102619 C19.5762712,79.176739 19.6374201,79.2372881 19.7142232,79.2372881 L21.5364617,79.2372881 C23.0221364,79.2372881 24.2372881,78.191862 24.2372881,76.9000049 C24.2372881,75.6216973 23.0221364,74.5762712 21.5364617,74.5762712" id="Fill-6" fill="#FFFFFF"></path>
                    <path d="M86.6617639,78.4925629 C86.1336042,78.4925629 85.4770151,78.1113491 85.4367842,78.0915886 C85.3635433,78.0458924 85.2258297,78.0458924 85.1608413,78.1364615 L84.8694251,78.5374357 C84.7956684,78.6420019 84.8369309,78.6741128 84.9086245,78.7321594 C85.072127,78.8548394 85.6719803,79.2372881 86.6932265,79.2372881 C87.8367129,79.2372881 88.559322,78.6222414 88.559322,77.9549115 C88.559322,77.1200288 87.6515476,76.7449903 86.8644658,76.4930434 C86.2068451,76.2789709 85.9071764,76.0714852 85.9071764,75.7672553 C85.9071764,75.5597696 86.1583617,75.3144096 86.6205014,75.3144096 C87.066652,75.3144096 87.6830102,75.6375768 87.7479986,75.6709227 C87.8454812,75.7223824 87.9666897,75.6709227 88.0327097,75.5927039 L88.3401151,75.2238405 C88.396851,75.1587954 88.3726093,75.0488774 88.2916317,75.0101797 C88.1291607,74.913847 87.4968133,74.5762712 86.6695006,74.5762712 C85.3795325,74.5762712 84.8446676,75.2427777 84.8446676,75.8191267 C84.8446676,76.5832008 85.6069919,76.9718248 86.3693161,77.2175965 C87.0506627,77.4382558 87.3993307,77.6646786 87.3993307,77.9940209 C87.3993307,78.2723152 87.0831569,78.4925629 86.6617639,78.4925629" id="Fill-8" fill="#FFFFFF"></path>
                    <path d="M56.7709156,74.7636177 L56.7709156,77.4383497 L56.7633922,77.4383497 L53.4821727,74.5762712 L53.2850587,74.5762712 C53.2063135,74.5762712 53.1355932,74.6281518 53.1355932,74.6927966 L53.1355932,79.0499416 C53.1355932,79.1145865 53.2063135,79.1738785 53.2850587,79.1738785 L54.0032957,79.1738785 C54.0890628,79.1738785 54.1527612,79.1145865 54.1527612,79.0499416 L54.1527612,76.2660957 L54.1607862,76.2660957 L57.4575542,79.2372881 L57.6471447,79.2372881 C57.7258899,79.2372881 57.7966102,79.1866428 57.7966102,79.1215862 L57.7966102,74.7636177 C57.7966102,74.6989729 57.7258899,74.640916 57.6471447,74.640916 L56.9213842,74.640916 C56.8341124,74.640916 56.7709156,74.6989729 56.7709156,74.7636177" id="Fill-10" fill="#FFFFFF"></path>
                    <path d="M32.3909678,77.6685884 L33.0762309,76.2242826 L33.0966733,76.2242826 L33.7952684,77.6685884 L32.3909678,77.6685884 Z M33.2571013,74.6493213 C33.2357702,74.6096655 33.2086618,74.5762712 33.1384468,74.5762712 L33.0682318,74.5762712 C33.0055715,74.5762712 32.9709084,74.6096655 32.9491328,74.6493213 L30.7769108,79.0665595 C30.7346929,79.1512977 30.7902428,79.2372881 30.8955653,79.2372881 L31.5035031,79.2372881 C31.6154916,79.2372881 31.6781519,79.1717517 31.706149,79.1057979 L32.0478918,78.3970027 L34.1379,78.3970027 L34.4800872,79.1057979 C34.5289711,79.1980498 34.5782994,79.2372881 34.6831775,79.2372881 L35.2906709,79.2372881 C35.3959934,79.2372881 35.4515433,79.1512977 35.4097698,79.0665595 L33.2571013,74.6493213 Z" id="Fill-12" fill="#FFFFFF"></path>
                    <path d="M27.8311835,79.2372881 C27.9027173,79.2372881 27.9661017,79.176739 27.9661017,79.1102619 L27.9661017,74.7024506 C27.9661017,74.6359735 27.9027173,74.5762712 27.8311835,74.5762712 L27.1692693,74.5762712 C27.0977354,74.5762712 27.0338983,74.6359735 27.0338983,74.7024506 L27.0338983,79.1102619 C27.0338983,79.176739 27.0977354,79.2372881 27.1692693,79.2372881 L27.8311835,79.2372881 Z" id="Fill-14" fill="#FFFFFF"></path>
                    <path d="M74.7457836,76.4925585 C74.0886639,76.27886 73.7884726,76.0717494 73.7884726,75.767054 C73.7884726,75.5599434 74.0396636,75.31454 74.5023295,75.31454 C74.9484901,75.31454 75.5643464,75.6377643 75.6293363,75.6702926 C75.7268211,75.7221731 75.8485481,75.6702926 75.9145695,75.5924717 L76.2219819,75.2235432 C76.2782033,75.1584866 76.2544769,75.0489609 76.1729816,75.0098446 C76.0110228,74.9130832 75.3781453,74.5762712 74.550814,74.5762712 C73.2613326,74.5762712 72.7259399,75.2424837 72.7259399,75.8189345 C72.7259399,76.5835554 73.4887971,76.9714245 74.2501069,77.2184749 C74.9319847,77.4383497 75.2806605,77.6652243 75.2806605,77.994213 C75.2806605,78.2725564 74.9644796,78.492843 74.5430771,78.492843 C74.0149055,78.492843 73.3588174,78.1123855 73.3185856,78.0917979 C73.2448272,78.0460936 73.1071106,78.0460936 73.0421208,78.1366787 L72.7512137,78.5381356 C72.6774554,78.643132 72.7171714,78.674425 72.7898982,78.7324819 C72.9534044,78.8551836 73.553787,79.2372881 74.5745405,79.2372881 C75.7185684,79.2372881 76.440678,78.6225445 76.440678,77.9559202 C76.440678,77.1200665 75.5333988,76.7449617 74.7457836,76.4925585" id="Fill-16" fill="#FFFFFF"></path>
                    <path d="M69.9152542,77.95521 C69.9152542,77.1202535 69.0063947,76.7451818 68.2202982,76.4923893 C67.5631546,76.2791213 67.2629524,76.0716173 67.2629524,75.7677722 C67.2629524,75.5598565 67.5141525,75.3144748 67.9768353,75.3144748 C68.4230121,75.3144748 69.0388908,75.6376705 69.103883,75.6706076 C69.2013714,75.7224836 69.322587,75.6706076 69.3875792,75.5927937 L69.6955186,75.223486 C69.7527737,75.1588468 69.7290463,75.0489191 69.6465165,75.010218 C69.4850676,74.9130534 68.8516513,74.5762712 68.0253215,74.5762712 C66.7347616,74.5762712 66.200381,75.2424248 66.200381,75.8196482 C66.200381,76.5833781 66.9617186,76.9716247 67.7240877,77.2178298 C68.4065061,77.4380969 68.7551946,77.6649514 68.7551946,77.9943228 C68.7551946,78.2726417 68.4390022,78.4929088 68.0181002,78.4929088 C67.4893936,78.4929088 66.8322499,78.1116614 66.7930483,78.0918991 C66.7192872,78.0461988 66.580534,78.0461988 66.5165734,78.136776 L66.2256558,78.5377856 C66.1518948,78.6423611 66.1921281,78.6744748 66.2643417,78.7325265 C66.4268222,78.855629 67.0277424,79.2372881 68.0490488,79.2372881 C69.19415,79.2372881 69.9152542,78.6225988 69.9152542,77.95521" id="Fill-18" fill="#FFFFFF"></path>
                    <path d="M81.9147745,74.5762712 L79.3564119,74.5762712 C79.2876559,74.5762712 79.2372881,74.6359735 79.2372881,74.7024506 L79.2372881,79.1102619 C79.2372881,79.176739 79.2876559,79.2372881 79.3564119,79.2372881 L81.9147745,79.2372881 C81.98433,79.2372881 82.0338983,79.176739 82.0338983,79.1102619 L82.0338983,78.5644724 C82.0338983,78.4975719 81.98433,78.438293 81.9147745,78.438293 L80.0539655,78.438293 L80.0539655,77.2726153 L81.6065718,77.2726153 C81.6697314,77.2726153 81.7268948,77.2192643 81.7268948,77.1464359 L81.7268948,76.5942951 C81.7268948,76.5269711 81.6697314,76.4672688 81.6065718,76.4672688 L80.0539655,76.4672688 L80.0539655,75.3756898 L81.9147745,75.3756898 C81.98433,75.3756898 82.0338983,75.3159874 82.0338983,75.2482401 L82.0338983,74.7024506 C82.0338983,74.6359735 81.98433,74.5762712 81.9147745,74.5762712" id="Fill-20" fill="#FFFFFF"></path>
                    <path d="M41.4359364,78.0209768 C41.3897849,77.9822723 41.3057407,77.9756843 41.2450151,78.0209768 C40.924384,78.2404399 40.5347686,78.3899054 40.0766547,78.3899054 C39.0992156,78.3899054 38.3651647,77.7039288 38.3651647,76.8940154 C38.3651647,76.0783374 39.0904711,75.3853611 40.0679103,75.3853611 C40.49639,75.3853611 40.924384,75.5278269 41.2450151,75.767054 C41.3057407,75.8189345 41.3824979,75.8189345 41.4359364,75.767054 L41.9023089,75.3602444 C41.9635203,75.3083638 41.9635203,75.2309547 41.8950218,75.1790741 C41.3752108,74.7837935 40.8170212,74.5762712 40.0455632,74.5762712 C38.5181932,74.5762712 37.2881356,75.618412 37.2881356,76.9141912 C37.2881356,78.2087351 38.5181932,79.2372881 40.0455632,79.2372881 C40.7256899,79.2372881 41.3824979,79.0371773 41.9023089,78.610192 C41.9557474,78.5648994 41.9703216,78.4800788 41.909596,78.4351979 L41.4359364,78.0209768 Z" id="Fill-22" fill="#FFFFFF"></path>
                    <path d="M47.0727673,78.3961559 C46.2557393,78.3961559 45.5879364,77.7287671 45.5879364,76.9131612 C45.5879364,76.0975553 46.2557393,75.4182268 47.0727673,75.4182268 C47.8889708,75.4182268 48.5633693,76.0975553 48.5633693,76.9131612 C48.5633693,77.7287671 47.8889708,78.3961559 47.0727673,78.3961559 M47.0727673,74.5762712 C45.7759105,74.5762712 44.7457627,75.6187317 44.7457627,76.9131612 C44.7457627,78.2084142 45.7759105,79.2372881 47.0727673,79.2372881 C48.3687996,79.2372881 49.4067797,78.2084142 49.4067797,76.9131612 C49.4067797,75.6187317 48.3687996,74.5762712 47.0727673,74.5762712" id="Fill-24" fill="#FFFFFF"></path>
                    <path d="M63.2707067,74.5762712 L60.7123441,74.5762712 C60.6427886,74.5762712 60.5932203,74.6359735 60.5932203,74.7024506 L60.5932203,79.1102619 C60.5932203,79.176739 60.6427886,79.2372881 60.7123441,79.2372881 L63.2707067,79.2372881 C63.3394627,79.2372881 63.3898305,79.176739 63.3898305,79.1102619 L63.3898305,78.5644724 C63.3898305,78.4975719 63.3394627,78.438293 63.2707067,78.438293 L61.4098977,78.438293 L61.4098977,77.2726153 L62.9617045,77.2726153 C63.0256636,77.2726153 63.0816278,77.2192643 63.0816278,77.1464359 L63.0816278,76.5942951 C63.0816278,76.5269711 63.0256636,76.4672688 62.9617045,76.4672688 L61.4098977,76.4672688 L61.4098977,75.3756898 L63.2707067,75.3756898 C63.3394627,75.3756898 63.3898305,75.3159874 63.3898305,75.2482401 L63.3898305,74.7024506 C63.3898305,74.6359735 63.3394627,74.5762712 63.2707067,74.5762712" id="Fill-26" fill="#FFFFFF"></path>
                    <path d="M34.022332,86.7855747 C33.205304,86.7855747 32.5370889,86.1185977 32.5370889,85.3029917 C32.5370889,84.4873858 33.205304,83.8080573 34.022332,83.8080573 C34.8381234,83.8080573 35.5125219,84.4873858 35.5125219,85.3029917 C35.5125219,86.1185977 34.8381234,86.7855747 34.022332,86.7855747 M34.022332,82.9661017 C32.7254753,82.9661017 31.6949153,84.0085622 31.6949153,85.3029917 C31.6949153,86.5982447 32.7254753,87.6271186 34.022332,87.6271186 C35.3179521,87.6271186 36.3559322,86.5982447 36.3559322,85.3029917 C36.3559322,84.0085622 35.3179521,82.9661017 34.022332,82.9661017" id="Fill-28" fill="#FFFFFF"></path>
                    <path d="M22.7915281,86.4100913 C22.7458608,86.3722136 22.6613278,86.3656262 22.6006001,86.4100913 C22.2804436,86.6307702 21.8903287,86.779399 21.4321988,86.779399 C20.4547255,86.779399 19.7206488,86.0926597 19.7206488,85.2840529 C19.7206488,84.468447 20.4459807,83.7759436 21.4239398,83.7759436 C21.8519488,83.7759436 22.2804436,83.917985 22.6006001,84.157191 C22.6613278,84.209067 22.7385735,84.209067 22.7915281,84.157191 L23.2584028,83.7504173 C23.3186447,83.6977179 23.3186447,83.6211391 23.2506296,83.5692631 C22.7308003,83.1740174 22.173077,82.9661017 21.401592,82.9661017 C19.8741685,82.9661017 18.6440678,84.0085622 18.6440678,85.3034035 C18.6440678,86.5986565 19.8741685,87.6271186 21.401592,87.6271186 C22.0812567,87.6271186 22.7385735,87.4266138 23.2584028,87.0000779 C23.3113573,86.9547893 23.3264178,86.8699762 23.2656901,86.8250993 L22.7915281,86.4100913 Z" id="Fill-30" fill="#FFFFFF"></path>
                    <path d="M28.1968855,85.0903667 L27.0348051,85.0903667 L27.0348051,83.7656656 L28.1968855,83.7656656 C28.5750264,83.7656656 28.9028391,84.0578791 28.9028391,84.4110762 C28.9028391,84.7837543 28.5750264,85.0903667 28.1968855,85.0903667 L28.1968855,85.0903667 Z M28.7749786,85.7429769 C29.394785,85.5100531 29.8305085,85.0107491 29.8305085,84.3975243 C29.8305085,83.6055834 29.1318093,82.9661017 28.2753248,82.9661017 L26.23681,82.9661017 C26.1583707,82.9661017 26.1016949,83.0258149 26.1016949,83.092304 L26.1016949,87.5009163 C26.1016949,87.5682524 26.1583707,87.6271186 26.23681,87.6271186 L26.8928889,87.6271186 C26.9636203,87.6271186 27.028004,87.5682524 27.028004,87.5009163 L27.028004,85.8031136 L27.8196515,85.8031136 L28.7677241,87.5682524 C28.7813263,87.5940858 28.8175988,87.6271186 28.8819825,87.6271186 L29.6305563,87.6271186 C29.7520692,87.6271186 29.8014905,87.5212442 29.7520692,87.4344271 L28.7749786,85.7429769 Z" id="Fill-32" fill="#FFFFFF"></path>
                    <path d="M39.949762,82.9661017 L39.2875261,82.9661017 C39.2159576,82.9661017 39.1525424,83.0262384 39.1525424,83.092304 L39.1525424,87.5009163 C39.1525424,87.5674055 39.2159576,87.6271186 39.2875261,87.6271186 L39.949762,87.6271186 C40.0213306,87.6271186 40.0847458,87.5674055 40.0847458,87.5009163 L40.0847458,83.092304 C40.0847458,83.0262384 40.0213306,82.9661017 39.949762,82.9661017" id="Fill-34" fill="#FFFFFF"></path>
                    <path d="M73.6003157,82.9661017 L73.4858287,82.9661017 C73.4208618,82.9661017 73.3867883,82.9916302 73.364527,83.0311583 L71.7926024,86.0871713 L71.771704,86.0871713 L70.1997794,83.0311583 C70.1779723,82.9916302 70.1348125,82.9661017 70.0784777,82.9661017 L69.9639907,82.9661017 C69.8849401,82.9661017 69.8422347,83.0105708 69.83542,83.0624513 L68.9853995,87.4138318 C68.9704071,87.504417 69.0285592,87.5628855 69.1207849,87.5628855 L69.7636384,87.5628855 C69.8286053,87.5628855 69.8849401,87.511005 69.8926635,87.4657124 L70.3074516,85.0125022 L70.3283501,85.0125022 L71.5922501,87.5562975 C71.6145115,87.5954138 71.6504023,87.6271186 71.7135518,87.6271186 L71.8421225,87.6271186 C71.9070894,87.6271186 71.9502491,87.5954138 71.9634242,87.5562975 L73.2141492,85.0125022 L73.2359563,85.0125022 L73.6575592,87.4657124 C73.6707342,87.511005 73.7293407,87.5628855 73.7929446,87.5628855 L74.4435215,87.5628855 C74.5362014,87.5628855 74.5934449,87.504417 74.5716379,87.4138318 L73.7293407,83.0624513 C73.722526,83.0105708 73.6793662,82.9661017 73.6003157,82.9661017" id="Fill-36" fill="#FFFFFF"></path>
                    <path d="M88.4098565,83.0311525 L87.6840961,83.0311525 C87.5968243,83.0311525 87.5346306,83.089616 87.5346306,83.1538434 L87.5346306,85.8275157 L87.5266056,85.8275157 L84.2448845,82.9661017 L84.0477706,82.9661017 C83.9690253,82.9661017 83.8983051,83.0179777 83.8983051,83.0830285 L83.8983051,87.4397887 C83.8983051,87.5044278 83.9690253,87.5624795 84.0477706,87.5624795 L84.7660076,87.5624795 C84.8527778,87.5624795 84.9159747,87.5044278 84.9159747,87.4397887 L84.9159747,84.6561887 L84.9239997,84.6561887 L88.220266,87.6271186 L88.4098565,87.6271186 C88.4891033,87.6271186 88.559322,87.5764778 88.559322,87.5106035 L88.559322,83.1538434 C88.559322,83.089616 88.4891033,83.0311525 88.4098565,83.0311525" id="Fill-38" fill="#FFFFFF"></path>
                    <path d="M66.9837913,82.9661017 L66.3212934,82.9661017 C66.2502468,82.9661017 66.1864407,83.0262384 66.1864407,83.092304 L66.1864407,87.5009163 C66.1864407,87.5674055 66.2502468,87.6271186 66.3212934,87.6271186 L66.9837913,87.6271186 C67.0548379,87.6271186 67.1186441,87.5674055 67.1186441,87.5009163 L67.1186441,83.092304 C67.1186441,83.0262384 67.0548379,82.9661017 66.9837913,82.9661017" id="Fill-40" fill="#FFFFFF"></path>
                    <path d="M79.700504,86.7855747 C78.8834037,86.7855747 78.2151295,86.1185977 78.2151295,85.3029917 C78.2151295,84.4873858 78.8834037,83.8080573 79.700504,83.8080573 C80.5167798,83.8080573 81.1908256,84.4873858 81.1908256,85.3029917 C81.1908256,86.1185977 80.5167798,86.7855747 79.700504,86.7855747 M79.700504,82.9661017 C78.4031203,82.9661017 77.3728814,84.0085622 77.3728814,85.3029917 C77.3728814,86.5982447 78.4031203,87.6271186 79.700504,87.6271186 C80.9962387,87.6271186 82.0338983,86.5982447 82.0338983,85.3029917 C82.0338983,84.0085622 80.9962387,82.9661017 79.700504,82.9661017" id="Fill-42" fill="#FFFFFF"></path>
                    <path d="M53.3050286,84.8823891 C52.647879,84.6686905 52.3481899,84.4615799 52.3481899,84.1568845 C52.3481899,83.9493622 52.5988764,83.7043705 53.0620792,83.7043705 C53.5072284,83.7043705 54.1236286,84.0275948 54.1891372,84.0601231 C54.2861106,84.1120037 54.4078432,84.0601231 54.4733518,83.9823022 L54.7807782,83.6133737 C54.8370021,83.5487288 54.8137904,83.4387914 54.7317757,83.3996751 C54.5708411,83.3029137 53.9369032,82.9661017 53.1100501,82.9661017 C51.8199943,82.9661017 51.2845772,83.6323142 51.2845772,84.208765 C51.2845772,84.9733859 52.0469533,85.361255 52.8098452,85.6078936 C53.4912381,85.8273567 53.839414,86.0542313 53.839414,86.3840435 C53.839414,86.662387 53.5242504,86.8826735 53.1023129,86.8826735 C52.5741173,86.8826735 51.9174835,86.5009807 51.8777656,86.4820402 C51.804004,86.4359241 51.6657653,86.4359241 51.6012883,86.5265093 L51.3098522,86.9283779 C51.2366063,87.0317273 51.2773558,87.0646673 51.34957,87.1223124 C51.5120521,87.2450141 52.1124619,87.6271186 53.1337776,87.6271186 C54.2778576,87.6271186 55,87.0127867 55,86.345339 C55,85.509897 54.091648,85.1347922 53.3050286,84.8823891" id="Fill-44" fill="#FFFFFF"></path>
                    <path d="M45.2491442,85.236897 L46.5447091,83.1524407 C46.5967942,83.0664707 46.5447091,82.9661017 46.4352074,82.9661017 L45.6871509,82.9661017 C45.6358861,82.9661017 45.5969248,82.998711 45.5846213,83.0253914 L44.7455184,84.4377566 L44.7393667,84.4377566 L43.9137977,83.0253914 C43.8945221,82.998711 43.8625329,82.9661017 43.8104478,82.9661017 L43.0623913,82.9661017 C42.9532997,82.9661017 42.9012147,83.0664707 42.9532997,83.1524407 L44.243123,85.236897 L42.9012147,87.4412031 C42.8499498,87.5275967 42.9012147,87.6271186 43.0172783,87.6271186 L43.7140699,87.6271186 C43.7653348,87.6271186 43.804296,87.5940858 43.8239817,87.5674055 L44.7328048,86.0423898 L44.7520803,86.0423898 L45.6744373,87.5674055 C45.6871509,87.5940858 45.7326741,87.6271186 45.783939,87.6271186 L46.4811407,87.6271186 C46.5898222,87.6271186 46.6419073,87.5335256 46.5898222,87.4412031 L45.2491442,85.236897 Z" id="Fill-46" fill="#FFFFFF"></path>
                    <path d="M61.6951095,84.8823891 C61.0375413,84.6686905 60.7378964,84.4615799 60.7378964,84.1568845 C60.7378964,83.9493622 60.9890617,83.7043705 61.4516803,83.7043705 C61.896248,83.7043705 62.5135886,84.0275948 62.5785718,84.0601231 C62.6760466,84.1120037 62.7972455,84.0601231 62.8622287,83.9823022 L63.1701254,83.6133737 C63.226341,83.5487288 63.2036484,83.4387914 63.1211301,83.3996751 C62.9597035,83.3029137 62.326375,82.9661017 61.5001599,82.9661017 C60.2092631,82.9661017 59.6754724,83.6323142 59.6754724,84.208765 C59.6754724,84.9733859 60.4367044,85.361255 61.1989678,85.6078936 C61.8812916,85.8273567 62.2289002,86.0542313 62.2289002,86.3840435 C62.2289002,86.662387 61.9137832,86.8826735 61.4924238,86.8826735 C60.9643062,86.8826735 60.306738,86.5009807 60.2680575,86.4820402 C60.1943067,86.4359241 60.0555727,86.4359241 59.9916209,86.5265093 L59.6991965,86.9283779 C59.6269929,87.0317273 59.6667049,87.0646673 59.7394242,87.1223124 C59.9018822,87.2450141 60.5027191,87.6271186 61.5238839,87.6271186 C62.6677948,87.6271186 63.3898305,87.0127867 63.3898305,86.345339 C63.3898305,85.509897 62.481097,85.1347922 61.6951095,84.8823891" id="Fill-48" fill="#FFFFFF"></path>
                    <path d="M56.0059061,82.0338983 C55.9627764,82.0338983 55.9322034,82.0579576 55.9322034,82.0846078 L55.9322034,82.3029918 C55.9322034,82.3303823 55.9627764,82.3533311 56.0059061,82.3533311 L56.6064471,82.3533311 L56.6064471,83.8468553 C56.6064471,83.874616 56.6430255,83.8983051 56.6812418,83.8983051 L57.0481177,83.8983051 C57.085788,83.8983051 57.1212745,83.874616 57.1212745,83.8468553 L57.1212745,82.3533311 L57.7229074,82.3533311 C57.7654912,82.3533311 57.7966102,82.3303823 57.7966102,82.3029918 L57.7966102,82.0846078 C57.7966102,82.0579576 57.7654912,82.0338983 57.7229074,82.0338983 L56.0059061,82.0338983 Z" id="Fill-50" fill="#FFFFFF"></path>
                </g>
            </g>
        </g>
    </g>
</svg>